<svg xmlns="http://www.w3.org/2000/svg" viewBox="0 0 64 64">
  <defs>
    <linearGradient id="body" x1="10" y1="12" x2="54" y2="56" gradientUnits="userSpaceOnUse">
      <stop stop-color="#f7ffff"/>
      <stop offset=".45" stop-color="#8ff4ff"/>
      <stop offset="1" stop-color="#16a6ee"/>
    </linearGradient>
    <linearGradient id="lens" x1="24" y1="22" x2="43" y2="43" gradientUnits="userSpaceOnUse">
      <stop stop-color="#faffff"/>
      <stop offset=".35" stop-color="#5ce9ff"/>
      <stop offset="1" stop-color="#064fba"/>
    </linearGradient>
  </defs>
  <path fill="#08395f" d="M17 20h7l4-6h10l4 6h5c4 0 7 3 7 7v20c0 4-3 7-7 7H17c-4 0-7-3-7-7V27c0-4 3-7 7-7Z"/>
  <path fill="url(#body)" d="M18 22h8l4-6h6l4 6h6c3 0 5 2 5 5v19c0 3-2 5-5 5H18c-3 0-5-2-5-5V27c0-3 2-5 5-5Z"/>
  <path fill="#ffffff" opacity=".7" d="M18 24h27c2 0 4 2 4 4v1H15v-1c0-2 1-4 3-4Z"/>
  <circle cx="32" cy="37" r="13" fill="#06416f" opacity=".28"/>
  <circle cx="32" cy="37" r="10" fill="url(#lens)"/>
  <circle cx="32" cy="37" r="5" fill="#063c68"/>
  <circle cx="29" cy="33" r="3" fill="#ffffff" opacity=".85"/>
  <path fill="#d9ffff" d="M44 26h4v4h-4z"/>
</svg>
